<mxfile host="app.diagrams.net" modified="2023-12-07T01:14:28.203Z" agent="Mozilla/5.0 (Windows NT 10.0; Win64; x64; rv:120.0) Gecko/20100101 Firefox/120.0" version="21.2.2" etag="3WI38xWV0zoBpFAX8ntS" type="github">
  <diagram name="Page-1" id="RghvnuT1xRsQhcBlpJNb">
    <mxGraphModel>
      <root>
        <mxCell id="0" />
        <mxCell id="1" parent="0" />
      </root>
    </mxGraphModel>
  </diagram>
</mxfile>
